<svg data-name="Centrify Logo" xmlns="http://www.w3.org/2000/svg" viewBox="0 0 260.97 87.93"><path fill="#ae0000" class="symbol" d="M24.32 42.48a3.16 3.16 0 0 1-1.51-.38A22.34 22.34 0 1 1 48.66 6.18a3.232 3.232 0 0 1-4.46 4.68 15.87 15.87 0 1 0-21.86 23 16 16 0 0 0 3.5 2.52 3.24 3.24 0 0 1-1.52 6.1zm21.32 18.38a3.24 3.24 0 0 1-.88-6.35A15.87 15.87 0 1 0 36.14 24a16.09 16.09 0 0 0-4.07 1.8 3.233 3.233 0 1 1-3.4-5.5 22.34 22.34 0 1 1 17.89 40.44 3.57 3.57 0 0 1-.92.12zm-23.28-1.79A22.35 22.35 0 0 1 .62 31.52 3.23 3.23 0 1 1 6.91 33a15.88 15.88 0 1 0 31.3 3 3.233 3.233 0 0 1 6.46-.26A22.37 22.37 0 0 1 23.22 59h-.84z"></path><path fill="#ae0000" class="text" d="M254.62 27.39a3 3 0 0 1 .25-1.25 3.09 3.09 0 0 1 1.7-1.67 3.19 3.19 0 0 1 3.45.66 3.26 3.26 0 0 1 .69 1 3.1 3.1 0 0 1 .26 1.24 3.23 3.23 0 0 1-.26 1.26 3 3 0 0 1-.69 1 2.84 2.84 0 0 1-1 .67 3.2 3.2 0 0 1-4.15-1.65 3 3 0 0 1-.25-1.26zm.51 0a3 3 0 0 0 .2 1.06 2.47 2.47 0 0 0 .58.85 2.84 2.84 0 0 0 .84.57 2.88 2.88 0 0 0 1.05.2 2.59 2.59 0 0 0 1.89-.78 2.78 2.78 0 0 0 .57-3 2.59 2.59 0 0 0-.57-.85 2.57 2.57 0 0 0-.85-.56 2.49 2.49 0 0 0-1-.21 2.7 2.7 0 0 0-1.05.21 2.84 2.84 0 0 0-.84.57 2.47 2.47 0 0 0-.58.85 2.88 2.88 0 0 0-.24 1.09zm1.49-1.82h1.36a1.61 1.61 0 0 1 1 .25 1 1 0 0 1 .32.8.88.88 0 0 1-.28.72 1.27 1.27 0 0 1-.69.28l1.05 1.61h-.55l-1-1.57h-.65v1.57h-.51zm.51 1.63h1a1.16 1.16 0 0 0 .32-.08.41.41 0 0 0 .22-.17.66.66 0 0 0 .08-.34.63.63 0 0 0-.07-.3.49.49 0 0 0-.2-.18.77.77 0 0 0-.26-.07h-1.08zM101.98 46.09a21.33 21.33 0 0 1-7.61 1.44c-8.08 0-14.67-6.09-14.67-15.24 0-8.78 6-15.22 14.94-15.22a15.76 15.76 0 0 1 7.16 1.67.66.66 0 0 0 .91-.22.8.8 0 0 0 .09-.3l.32-3.91a.67.67 0 0 0-.42-.69 22 22 0 0 0-8.3-1.47c-11.89 0-20.59 8-20.59 20 0 12.38 8.21 20.31 20.54 20.31a25.71 25.71 0 0 0 8.4-1.22.64.64 0 0 0 .42-.67l-.22-3.93a.67.67 0 0 0-.69-.63.69.69 0 0 0-.28.08zm14.65-23.44c-8 0-13.32 6-13.32 14.39 0 9.25 4.62 15.42 14.74 15.42a20.93 20.93 0 0 0 8.55-1.7.68.68 0 0 0 .42-.62v-3.55a.66.66 0 0 0-.66-.66.58.58 0 0 0-.38.07 17.55 17.55 0 0 1-7.78 2.18 9.31 9.31 0 0 1-9.35-8.8.67.67 0 0 1 .65-.69h19a.67.67 0 0 0 .67-.65c-.19-8.83-3.3-15.39-12.58-15.39zm6.25 12.15h-13.27a.66.66 0 0 1-.66-.64v-.1c.57-3.51 2.73-7.16 7.53-7.16 4.28 0 6.79 3.18 7.06 7.21a.67.67 0 0 1-.65.69zm23.19-12.17c-4 0-7.75 2-9.32 5.2h-.1V24a.69.69 0 0 0-.67-.68h-3.75a.67.67 0 0 0-.68.66V51.1a.67.67 0 0 0 .67.67h3.85a.67.67 0 0 0 .65-.67V38.59c0-6.91 2.69-11.71 8.68-11.71 4.55.28 6 3.51 6 10.17V51.1a.69.69 0 0 0 .69.67h4a.65.65 0 0 0 .64-.66V34.87c-.06-7.66-3.34-12.24-10.66-12.24zm30 25.06a6.75 6.75 0 0 1-2.66.52c-2.41 0-4.4-1.79-4.4-5.1V28.22a.66.66 0 0 1 .64-.67h6.22a.67.67 0 0 0 .67-.67V24a.68.68 0 0 0-.67-.67h-6.22a.64.64 0 0 1-.64-.64V16a.67.67 0 0 0-.67-.67.64.64 0 0 0-.2 0l-3.91 1.26a.65.65 0 0 0-.49.63v5.44a.64.64 0 0 1-.63.65h-5a.71.71 0 0 0-.67.67v2.91a.68.68 0 0 0 .67.67h5.1a.65.65 0 0 1 .65.65v16c0 5.69 3.38 8.28 8.8 8.28a14.7 14.7 0 0 0 4-.67.64.64 0 0 0 .48-.62v-2.85a.65.65 0 0 0-1-.66zm19.4-24.76a12.87 12.87 0 0 0-2.9-.3 8.69 8.69 0 0 0-7.44 5.07h-.06V24a.69.69 0 0 0-.67-.68h-3.58a.67.67 0 0 0-.67.67V51.1a.67.67 0 0 0 .67.67h3.93a.67.67 0 0 0 .65-.67V38.82c0-7.14 3.08-11.61 7.75-11.61a7.77 7.77 0 0 1 2.09.25.67.67 0 0 0 .8-.5.77.77 0 0 0 0-.15v-3.23a.64.64 0 0 0-.57-.65zm8 .37h-3.92a.67.67 0 0 0-.67.67V51.1a.67.67 0 0 0 .65.67h3.94a.67.67 0 0 0 .65-.67V24a.66.66 0 0 0-.66-.7zm.32-12.3h-4.58a.67.67 0 0 0-.67.65v4.6a.67.67 0 0 0 .65.67h4.6a.67.67 0 0 0 .67-.67v-4.56a.67.67 0 0 0-.67-.67zm47.67 12.3h-3.88a.7.7 0 0 0-.65.48l-7.66 23.09h-.1l-7.5-23.09a.68.68 0 0 0-.63-.48h-10.51a.67.67 0 0 1-.67-.65v-2.43c0-3.83.57-6.74 5.09-6.74a13.17 13.17 0 0 1 1.77.13.62.62 0 0 0 .75-.45.77.77 0 0 0 0-.15l.15-2.83a.69.69 0 0 0-.57-.7 20.29 20.29 0 0 0-2.91-.25c-7.76 0-9.55 4.53-9.55 11.44v2a.67.67 0 0 1-.65.67h-5.37a.67.67 0 0 0-.67.65v2.93a.69.69 0 0 0 .67.68h5.41a.65.65 0 0 1 .67.63v22.9a.67.67 0 0 0 .67.67h3.91a.67.67 0 0 0 .67-.67V28.24a.64.64 0 0 1 .64-.64h6.34a.67.67 0 0 1 .65.44l8 21.88a16.77 16.77 0 0 1 1 3c0 .57-1.57 7-6.24 7a7.63 7.63 0 0 1-1.72-.2.66.66 0 0 0-.8.48.5.5 0 0 0 0 .12l-.22 2.88a.67.67 0 0 0 .55.7 15.08 15.08 0 0 0 3 .27c6.91 0 9-6.29 10.94-11.78l10.03-28.19a.67.67 0 0 0-.4-.86.78.78 0 0 0-.21-.04zM9.07 85l6.53-7.74H9.31v-2.53h9.76v2.51L12.67 85h6.62v2.6H9.07zm13.59-10.27h8.74v2.66h-5.91v2.4h5.58v2.6h-5.58V85h6.24v2.62h-9.07zm12.7 0h5a9 9 0 0 1 1.87.19 4.34 4.34 0 0 1 1.54.64 3.15 3.15 0 0 1 1 1.2 4.08 4.08 0 0 1 .4 1.88 3.86 3.86 0 0 1-.71 2.36 3.25 3.25 0 0 1-2.08 1.2l3.28 5.44h-3.4l-2.69-5.14h-1.4v5.1h-2.84zm2.84 5.33h2.48a2.58 2.58 0 0 0 .77-.16 1.35 1.35 0 0 0 .57-.43 1.33 1.33 0 0 0 .23-.82 1.42 1.42 0 0 0-.2-.78 1.47 1.47 0 0 0-.51-.45 2.16 2.16 0 0 0-.71-.21H38.2zm9.61 1.1a7.2 7.2 0 0 1 .52-2.79 6.15 6.15 0 0 1 3.65-3.49 8.32 8.32 0 0 1 5.57 0 6.18 6.18 0 0 1 2.2 1.35 6 6 0 0 1 1.44 2.14 7.81 7.81 0 0 1 0 5.59 6 6 0 0 1-1.44 2.14 6.18 6.18 0 0 1-2.2 1.35 8.32 8.32 0 0 1-5.57 0A6.15 6.15 0 0 1 48.33 84a7.07 7.07 0 0 1-.52-2.84zm3 0a4.76 4.76 0 0 0 .28 1.67 3.94 3.94 0 0 0 .81 1.31 3.77 3.77 0 0 0 1.26.86 4.55 4.55 0 0 0 3.29 0 3.77 3.77 0 0 0 1.26-.86 3.94 3.94 0 0 0 .81-1.31 5.1 5.1 0 0 0 0-3.32 3.83 3.83 0 0 0-.81-1.32 3.77 3.77 0 0 0-1.26-.86 4.55 4.55 0 0 0-3.29 0 3.77 3.77 0 0 0-1.26.86 3.83 3.83 0 0 0-.81 1.32 4.66 4.66 0 0 0-.33 1.65zm23.46-3.92h-3.72v-2.51h10.18v2.51h-3.66V87.6h-2.84zm9.31-2.51h5a8.9 8.9 0 0 1 1.86.19 4.39 4.39 0 0 1 1.55.64 3.15 3.15 0 0 1 1 1.2 4.07 4.07 0 0 1 .39 1.88 3.86 3.86 0 0 1-.76 2.36 3.22 3.22 0 0 1-2.07 1.2l3.27 5.44h-3.4l-2.69-5.14h-1.4v5.1H83.5zm2.83 5.33h2.47a2.58 2.58 0 0 0 .78-.16 1.35 1.35 0 0 0 .57-.43 1.33 1.33 0 0 0 .23-.82 1.42 1.42 0 0 0-.2-.78 1.57 1.57 0 0 0-.51-.45 2.9 2.9 0 0 0-.71-.21H86.4zm21.16 2.58a6.07 6.07 0 0 1-.35 2.11 4.6 4.6 0 0 1-1 1.67 4.82 4.82 0 0 1-1.7 1.11 7.17 7.17 0 0 1-4.71 0 4.56 4.56 0 0 1-2.73-2.78 6.3 6.3 0 0 1-.34-2.11v-7.91h2.83v7.8a3.24 3.24 0 0 0 .19 1.11 2.75 2.75 0 0 0 .54.88 2.4 2.4 0 0 0 .83.58 2.49 2.49 0 0 0 3.35-1.46 3 3 0 0 0 .19-1.11v-7.8h2.84zm10.34-4.76a2 2 0 0 0-.94-.65 3.52 3.52 0 0 0-1.11-.21 3.48 3.48 0 0 0-.64.07 2.72 2.72 0 0 0-.62.23 1.33 1.33 0 0 0-.47.41 1 1 0 0 0-.18.62 1 1 0 0 0 .43.89 4.14 4.14 0 0 0 1.1.53c.45.14.92.29 1.43.43a5.84 5.84 0 0 1 1.43.62 3.41 3.41 0 0 1 1.1 1.07 3.33 3.33 0 0 1 .43 1.8 4 4 0 0 1-.4 1.87 3.67 3.67 0 0 1-1.08 1.33 4.67 4.67 0 0 1-1.58.78 7.19 7.19 0 0 1-1.9.26 6.54 6.54 0 0 1-2.32-.39 5.45 5.45 0 0 1-2-1.23l2-2.22a2.83 2.83 0 0 0 1.1.9 3.14 3.14 0 0 0 1.38.32 3.27 3.27 0 0 0 .7-.08 2.44 2.44 0 0 0 .63-.25 1.42 1.42 0 0 0 .46-.42 1.14 1.14 0 0 0-.28-1.51 4 4 0 0 0-1.12-.58l-1.48-.47a6.92 6.92 0 0 1-1.45-.63 3.55 3.55 0 0 1-1.12-1.06 3 3 0 0 1-.45-1.73 3.9 3.9 0 0 1 .41-1.81 4.18 4.18 0 0 1 1.09-1.31 4.69 4.69 0 0 1 1.58-.79 6.29 6.29 0 0 1 1.83-.27 7.53 7.53 0 0 1 2.11.31 4.93 4.93 0 0 1 1.84 1zm7.93-.64h-3.72v-2.51h10.18v2.51h-3.72V87.6h-2.83zm16-2.51h4.78a10 10 0 0 1 1.89.18 4.17 4.17 0 0 1 1.56.63 3.19 3.19 0 0 1 1 1.2 4.13 4.13 0 0 1 .39 1.9 4.39 4.39 0 0 1-.36 1.89 3.05 3.05 0 0 1-1 1.22 4.2 4.2 0 0 1-1.51.64 8.54 8.54 0 0 1-1.89.19h-2.07v5h-2.84zm2.84 5.45h1.89a3.64 3.64 0 0 0 .74-.07 2.41 2.41 0 0 0 .63-.24 1.41 1.41 0 0 0 .46-.48 1.5 1.5 0 0 0 .17-.75 1.31 1.31 0 0 0-.23-.79 1.47 1.47 0 0 0-.58-.47 2.7 2.7 0 0 0-.79-.2h-2.29zm10-5.45h5a8.9 8.9 0 0 1 1.86.19 4.39 4.39 0 0 1 1.55.64 3.15 3.15 0 0 1 1 1.2 4.07 4.07 0 0 1 .39 1.88 3.86 3.86 0 0 1-.71 2.32 3.22 3.22 0 0 1-2.07 1.2l3.28 5.44h-3.4l-2.69-5.14h-1.4v5.14h-2.83zm2.83 5.33h2.47a2.58 2.58 0 0 0 .78-.16 1.35 1.35 0 0 0 .57-.43 1.33 1.33 0 0 0 .23-.82 1.42 1.42 0 0 0-.2-.78 1.57 1.57 0 0 0-.51-.45 2.16 2.16 0 0 0-.71-.21h-2.66zm10.27-5.33h2.84V87.6h-2.84zm5.51 0h3.23l3.19 8.43 3.24-8.43h3l-5.3 12.87h-2.28zm15.39 0h2.84V87.6h-2.84zm6.89 0h2.84V85h5.25v2.6h-8.09zm11.13 0h8.74v2.66h-5.91v2.4h5.57v2.6h-5.58V85h6.24v2.62h-9.06zm24.4 12a10.68 10.68 0 0 1-2.62 1 13.67 13.67 0 0 1-2.78.29 7.75 7.75 0 0 1-2.78-.48 6.18 6.18 0 0 1-2.2-1.35 6 6 0 0 1-1.47-2.19 7.81 7.81 0 0 1 0-5.59 6 6 0 0 1 1.44-2.14 6.18 6.18 0 0 1 2.2-1.35 7.75 7.75 0 0 1 2.78-.48 10.2 10.2 0 0 1 2.85.38 5.61 5.61 0 0 1 2.28 1.28l-2 2.18a4 4 0 0 0-1.31-.91 4.54 4.54 0 0 0-1.82-.31 4.19 4.19 0 0 0-1.64.31 3.77 3.77 0 0 0-1.26.86 3.68 3.68 0 0 0-.81 1.32 4.86 4.86 0 0 0 0 3.32 3.56 3.56 0 0 0 .81 1.31 3.77 3.77 0 0 0 1.26.86 4.19 4.19 0 0 0 1.64.31 5.41 5.41 0 0 0 1.6-.21 5.93 5.93 0 0 0 1.08-.43v-2.13h-2.31V80h5zm3.91-12h8.75v2.66h-5.91v2.4h5.58v2.6h-5.58V85h6.25v2.62h-9.12z"></path></svg>